<svg aria-hidden="true" style="position:absolute;width:0;height:0" xmlns="http://www.w3.org/2000/svg" overflow="hidden"><defs><symbol id="ya-and-co" viewBox="0 0 32 32"><path d="M6.065 0l4.802 4.546-8.913-.005v22.054H25.25v-8.432l4.796 4.541V.001H6.065zm18.974 17.629L11.425 4.74h13.614v12.889zm-4.227 5.74H5.64V8.536h1.072v13.828h14.1v1.004zM9.223 29.531l-.56 1.154-.56-1.154h-.47l.818 1.539v.897h.425v-.897l.816-1.539h-.468zm.704 2.435l.197-.567h.944l.199.567h.442l-.922-2.436h-.38l-.92 2.436h.44zm.669-1.918l.353 1.01h-.706l.353-1.01zm2.232.952a.557.557 0 00-.092.309c0 .205.072.372.216.5.145.127.338.191.579.191s.448-.065.622-.196l.137.162h.472l-.358-.423c.141-.192.211-.438.211-.738h-.353a.973.973 0 01-.102.447l-.47-.555.166-.12a.93.93 0 00.253-.254.542.542 0 00.077-.281.5.5 0 00-.171-.386.613.613 0 00-.435-.157.649.649 0 00-.468.167.594.594 0 00-.174.452.6.6 0 00.055.243c.038.084.104.185.199.305-.181.129-.302.241-.363.336zm1.099.538a.623.623 0 01-.385.137c-.122 0-.219-.035-.291-.105s-.109-.162-.109-.274c0-.13.067-.246.201-.348l.052-.037.532.627zm-.437-1.079c-.115-.142-.172-.259-.172-.353 0-.081.023-.149.07-.202s.11-.08.189-.08c.074 0 .134.023.182.069a.214.214 0 01.072.162.303.303 0 01-.104.236l-.052.042-.186.127zm3.965 1.324c.167-.146.263-.349.288-.609h-.422c-.022.174-.075.298-.159.373s-.209.112-.375.112a.472.472 0 01-.415-.207c-.094-.138-.141-.339-.141-.602v-.216c.002-.26.052-.457.151-.59a.495.495 0 01.425-.202c.158 0 .278.039.36.117.083.077.134.203.154.378h.422c-.027-.267-.122-.473-.286-.619s-.38-.219-.649-.219a.98.98 0 00-.529.142c-.152.095-.268.23-.35.405s-.122.378-.122.607v.227c.003.224.045.421.125.59s.194.301.341.393c.148.091.32.137.514.137.278 0 .5-.073.667-.217zm2.487-.342c.083-.181.124-.39.124-.629v-.135a1.481 1.481 0 00-.127-.624.922.922 0 00-.356-.411c-.153-.096-.328-.144-.527-.144s-.375.049-.529.146a.947.947 0 00-.356.416 1.484 1.484 0 00-.125.629v.137c.001.233.043.439.127.617a.966.966 0 00.358.413.983.983 0 00.529.144c.2 0 .376-.048.529-.144a.941.941 0 00.355-.415zm-.453-1.377c.103.144.154.351.154.621v.127c0 .274-.051.483-.152.626a.494.494 0 01-.432.214.506.506 0 01-.435-.219c-.104-.146-.156-.353-.156-.621v-.14c.002-.262.055-.465.157-.607a.501.501 0 01.43-.216c.187 0 .332.072.433.216z"/></symbol><symbol id="company-tag-line-here" viewBox="0 0 32 32"><path d="M14.224 1.806h-.084a9.985 9.985 0 00-.388-.014h-.28c-.244 0-.494.006-.741.019a.523.523 0 00-.056 0c-2.243.127-4.44.688-6.472 1.651l-.266.128v13.626l.623-.211a23.32 23.32 0 011.731-.513 21.155 21.155 0 014.982-.662v1.79a15.56 15.56 0 00-.655.019h-.051a19.948 19.948 0 00-3.833.588c-1.59.398-3.124.996-4.566 1.779V2.531A18.3 18.3 0 018.958.583a18.343 18.343 0 014.515-.582h.263c.314.008.621.022.909.044.759.053 1.511.173 2.25.358v1.762a13.947 13.947 0 00-2.179-.329l-.045-.004c-.152-.013-.304-.026-.446-.026zm3.101 1.801c.391.03.796.044 1.205.044a19.352 19.352 0 004.747-.609c1.59-.4 3.123-.998 4.564-1.781v17.164a18.313 18.313 0 01-4.792 1.948 18.486 18.486 0 01-4.515.581 13.778 13.778 0 01-3.425-.404V3.275c.265.061.537.117.814.164.455.077.934.133 1.401.167zm8.735.133l-.623.21c-.573.192-1.151.365-1.731.518a21.098 21.098 0 01-5.173.663c-.406 0-.78-.011-1.141-.034l-.497-.033v14.017l.427.038c.395.034.803.052 1.214.052a16.567 16.567 0 004.074-.527 17.08 17.08 0 003.184-1.144l.266-.128V3.742zM5.377 25.977a.912.912 0 00-.693-.28 1.034 1.034 0 00-.4.075.91.91 0 00-.512.518 1.023 1.023 0 00-.072.387v2.335c-.006.165.026.328.092.479.055.12.135.226.234.313a.815.815 0 00.321.166c.114.032.231.048.349.049a.972.972 0 00.892-.61.951.951 0 00.075-.372v-.261h-.61v.208a.528.528 0 01-.036.208.359.359 0 01-.089.131.365.365 0 01-.128.067.425.425 0 01-.128.022.314.314 0 01-.286-.125.548.548 0 01-.081-.313v-2.177a.738.738 0 01.075-.349.31.31 0 01.299-.141.33.33 0 01.272.131c.068.09.104.2.101.313v.202h.604v-.238a1.093 1.093 0 00-.279-.737zM9.002 25.951a1.051 1.051 0 00-1.38 0 .961.961 0 00-.237.327 1.099 1.099 0 00-.089.452v2.239a1.08 1.08 0 00.089.459c.055.12.136.227.237.313a.94.94 0 00.322.197 1.028 1.028 0 00.728 0c.121-.044.233-.111.33-.197a.948.948 0 00.23-.313 1.08 1.08 0 00.089-.459V26.73a1.08 1.08 0 00-.089-.452 1.015 1.015 0 00-.23-.327zm-.285 3.018a.405.405 0 01-.121.324.445.445 0 01-.574 0 .397.397 0 01-.121-.324V26.73a.405.405 0 01.121-.324.445.445 0 01.574 0 .397.397 0 01.121.324v2.239zM13.764 29.969V25.73h-.587l-.771 2.244h-.011l-.777-2.244h-.581v4.239h.606V27.39h.011l.593 1.823h.302l.598-1.823h.011v2.579h.606zM17.205 26.027a.84.84 0 00-.343-.232 1.363 1.363 0 00-.439-.066h-.9v4.239h.604v-1.656h.311c.189.009.376-.031.545-.116a.882.882 0 00.332-.324 1.02 1.02 0 00.139-.369c.024-.16.035-.321.033-.482a2.421 2.421 0 00-.059-.606.898.898 0 00-.223-.39zm-.311 1.293a.547.547 0 01-.056.221.346.346 0 01-.156.149.619.619 0 01-.285.053h-.276v-1.441h.311a.578.578 0 01.272.053.349.349 0 01.142.157.62.62 0 01.053.236v.282c0 .099.006.2 0 .291h-.006zM20.066 25.73h-.495l-.934 4.239h.604l.177-.911h.823l.177.911h.604l-.957-4.239zm-.557 2.751l.297-1.537h.011l.296 1.537h-.604zM23.969 28.284h-.011l-.912-2.554h-.581v4.239h.604V27.42h.012l.923 2.549h.568V25.73h-.604v2.554zM27.66 25.73l-.486 1.685h-.012l-.486-1.685h-.64l.83 2.447v1.792h.604v-1.792l.83-2.447h-.64zM3.692 31.166h.291v.817h.198v-.817h.29v-.167h-.778v.167zM6.139 30.999l-.381.984h.21l.081-.224h.392l.084.224h.215l-.391-.984h-.21zm-.031.594l.134-.365.134.365h-.268zM8.559 31.62h.227v.127a.38.38 0 01-.233.083.244.244 0 01-.209-.093.411.411 0 01-.073-.257c0-.219.095-.329.283-.329a.206.206 0 01.222.157l.195-.038c-.042-.192-.181-.289-.417-.289a.495.495 0 00-.344.127.494.494 0 00-.141.379.532.532 0 00.126.369.477.477 0 00.374.144.59.59 0 00.417-.157v-.388h-.427v.166zM11.029 30.999h-.199v.984h.69v-.167h-.49v-.817zM13.118 30.999h-.199v.984h.199v-.984zM15.161 31.656l-.403-.657h-.193v.984h.185v-.643l.395.643h.198v-.984h-.182v.657zM17.007 31.55h.49v-.167h-.49v-.216h.528V31h-.727v.984h.747v-.167h-.548v-.266zM21.485 31.387h-.388v-.388h-.198v.984h.198v-.43h.388v.43h.198v-.984h-.198v.388zM23.342 31.55h.492v-.167h-.492v-.216h.529V31h-.727v.984h.746v-.167h-.548v-.266zM25.861 31.55c.171-.027.258-.117.258-.274a.236.236 0 00-.096-.219.553.553 0 00-.288-.058h-.417v.984h.198v-.412h.039a.261.261 0 01.123.022.21.21 0 01.07.072l.215.313h.237l-.12-.192a.685.685 0 00-.218-.236zm-.2-.136h-.146v-.247h.156a.526.526 0 01.201.023c.014.013.026.029.033.046a.133.133 0 01-.005.111.128.128 0 01-.037.043.547.547 0 01-.201.023zM27.76 31.55h.49v-.167h-.49v-.216h.529V31h-.729v.984h.747v-.167h-.548v-.266z"/></symbol><symbol id="company" viewBox="0 0 32 32"><path d="M4.953 30.587c.012 0 .023.003.034.007s.02.01.028.018l.161.154a1.317 1.317 0 01-.452.291 1.774 1.774 0 01-.64.105 1.68 1.68 0 01-.602-.098 1.319 1.319 0 01-.454-.276 1.237 1.237 0 01-.293-.426 1.408 1.408 0 01-.102-.546 1.336 1.336 0 01.11-.548c.07-.158.176-.303.311-.426a1.44 1.44 0 01.482-.277c.198-.067.408-.1.62-.098a1.67 1.67 0 01.576.089c.159.06.305.143.432.246l-.135.164a.122.122 0 01-.034.03.092.092 0 01-.054.012.127.127 0 01-.058-.017l-.072-.044-.1-.056a1 1 0 00-.135-.054 1.366 1.366 0 00-.422-.061 1.292 1.292 0 00-.446.073 1.018 1.018 0 00-.349.206.959.959 0 00-.227.328 1.097 1.097 0 00-.082.433c-.002.15.026.298.082.44a.917.917 0 00.556.528c.131.047.272.071.414.07a1.67 1.67 0 00.245-.014.966.966 0 00.53-.225.129.129 0 01.076-.028zM9.59 29.815a1.33 1.33 0 01-.108.543c-.065.157-.168.301-.302.421s-.296.215-.475.276a1.96 1.96 0 01-1.221 0 1.41 1.41 0 01-.472-.277 1.223 1.223 0 01-.305-.425 1.412 1.412 0 010-1.087 1.28 1.28 0 01.305-.427c.135-.116.295-.207.472-.267a1.918 1.918 0 011.221 0c.178.063.34.157.474.277a1.249 1.249 0 01.411.966zm-.422 0a1.169 1.169 0 00-.076-.436.9.9 0 00-.554-.532 1.416 1.416 0 00-.887 0 .95.95 0 00-.339.206.876.876 0 00-.217.326 1.28 1.28 0 000 .872.876.876 0 00.217.326c.094.089.21.159.339.204.286.093.601.093.887 0a.946.946 0 00.339-.204.926.926 0 00.215-.326 1.13 1.13 0 00.076-.436zM12.754 30.273l.042.098.046-.098a.89.89 0 01.052-.096l1.026-1.62c.02-.028.038-.045.058-.051a.297.297 0 01.084-.009h.303v2.635h-.359v-1.938-.082a.69.69 0 010-.091l-1.032 1.643c-.013.025-.034.045-.06.06s-.057.022-.088.022h-.058c-.031 0-.062-.007-.088-.022s-.047-.035-.06-.06l-1.062-1.653v2.116h-.347v-2.63h.303a.264.264 0 01.084.009.112.112 0 01.056.051l1.048 1.622c.021.03.038.062.052.094zM16.614 30.142v.987h-.401v-2.632h.895c.169-.003.338.017.5.058.13.032.25.088.353.164.089.071.158.16.201.258a.788.788 0 01.068.337.766.766 0 01-.074.337.718.718 0 01-.217.263 1.015 1.015 0 01-.355.174 1.71 1.71 0 01-.484.061l-.486-.007zm0-.283h.486a1.12 1.12 0 00.311-.04.69.69 0 00.225-.113.504.504 0 00.185-.395c.005-.073-.009-.146-.04-.214s-.079-.13-.14-.18a.863.863 0 00-.54-.141h-.486v1.085zM22.01 31.132h-.317a.155.155 0 01-.088-.024.152.152 0 01-.052-.061l-.273-.637h-1.371l-.283.637a.142.142 0 01-.05.059.15.15 0 01-.09.026h-.317l1.204-2.636h.418l1.221 2.636zm-1.987-.978h1.132l-.478-1.073a1.638 1.638 0 01-.09-.248l-.046.138c-.014.042-.03.08-.044.112l-.474 1.071zM23.745 28.509a.156.156 0 01.06.047l1.756 1.987v-.092-1.953h.359v2.636h-.201a.188.188 0 01-.082-.016.21.21 0 01-.064-.049l-1.754-1.985a.69.69 0 010 .091v1.959h-.359v-2.636h.213a.173.173 0 01.072.012zM28.88 30.084v1.047h-.401v-1.047l-1.11-1.587h.359a.141.141 0 01.086.023c.022.017.04.037.054.059l.695 1.024c.028.044.052.084.072.122s.036.075.05.112l.052-.113a.948.948 0 01.068-.12l.685-1.031a.275.275 0 01.052-.056.137.137 0 01.086-.026h.363l-1.112 1.594zM12.555 24.074c.175.019.351.035.53.049 2.709-1.053 5-2.776 6.588-4.954s2.402-4.714 2.34-7.292l-2.985-2.594c.607 2.744.323 5.582-.82 8.194s-3.1 4.897-5.652 6.598z"/><path d="M11.489 23.953l.08.014c2.727-1.695 4.806-4.062 5.969-6.794s1.354-5.705.552-8.534l-4.252-3.694c1.72 3.037 2.412 6.435 1.996 9.8s-1.923 6.558-4.345 9.208zM25.909 14.922c-.722 2.832-2.477 5.387-5.003 7.284a15.998 15.998 0 01-2.377 1.483c2.057-.525 3.947-1.454 5.526-2.714s2.803-2.819 3.578-4.555l-1.724-1.496z"/><path d="M25.232 14.505l-2.455-2.133c-.047 2.432-.843 4.809-2.305 6.883s-3.537 3.771-6.008 4.913h.012c.551 0 1.101-.029 1.648-.085 2.31-.819 4.351-2.123 5.94-3.794s2.678-3.658 3.168-5.784zM11.844 3.387L8.915.839c-2.618.879-4.87 2.425-6.461 4.434S.008 9.663 0 12.101c.01 2.695 1.054 5.31 2.967 7.432s4.585 3.628 7.595 4.281c2.686-2.844 4.259-6.357 4.49-10.031s-.893-7.315-3.207-10.396zM32 14.113c-.011-3.197-1.477-6.261-4.079-8.522s-6.128-3.535-9.808-3.544a15.58 15.58 0 00-4.973.804l17.933 15.581c.614-1.377.928-2.842.927-4.319z"/></symbol><symbol id="foster-peters" viewBox="0 0 65 32"><path d="M15.668 9.77h-.002c-1.889 0-3.42 1.361-3.42 3.04v.002c0 1.679 1.531 3.04 3.42 3.04h.002c1.889 0 3.42-1.361 3.42-3.04v-.002c0-1.679-1.531-3.04-3.42-3.04zM40.914 8.798c-.005-2.332-1.05-4.566-2.905-6.215S33.639.005 31.016 0c-2.624.004-5.14.932-6.996 2.582s-2.901 3.885-2.906 6.217v12.858s19.798-1.96 19.801-12.856v-.002zM5.312 25.877c.005 1.622.732 3.177 2.023 4.325s3.04 1.794 4.865 1.799c1.825-.005 3.574-.651 4.865-1.798s2.018-2.701 2.023-4.323v-8.947S5.312 18.298 5.312 25.878zM12.2 27.48c-.357 0-.705-.094-1.002-.27s-.528-.426-.664-.719-.172-.615-.103-.926.241-.597.494-.821.574-.377.924-.439c.35-.062.713-.03 1.042.091s.611.327.809.59c.198.264.304.574.304.891.001.211-.045.42-.135.615s-.223.373-.391.522c-.168.15-.367.268-.586.349s-.454.123-.692.123v-.006zM26.122 26.597h-1.329v1.373h-.692v-3.36h2.188v.561h-1.495v.868h1.329v.558zm3.328-.231c0 .331-.058.621-.175.87a1.321 1.321 0 01-1.251.78c-.278 0-.527-.067-.745-.201s-.388-.325-.508-.572a1.968 1.968 0 01-.182-.858v-.166c0-.331.059-.622.178-.872.12-.252.288-.445.505-.579.218-.135.468-.203.748-.203s.528.068.745.203c.218.134.387.327.505.579.12.251.18.541.18.87v.15zm-.702-.152c0-.352-.063-.62-.189-.803s-.306-.275-.54-.275a.618.618 0 00-.538.272c-.126.18-.19.445-.192.794v.164c0 .343.063.609.189.799s.308.284.545.284a.61.61 0 00.535-.272c.125-.183.188-.449.189-.799v-.164zm2.948.874a.352.352 0 00-.138-.3c-.092-.071-.258-.145-.498-.222a3.492 3.492 0 01-.57-.231c-.382-.206-.572-.484-.572-.833 0-.181.051-.343.152-.485.103-.143.25-.255.441-.335.192-.08.408-.12.646-.12.24 0 .454.044.642.131.188.086.333.209.436.367a.953.953 0 01.157.54H31.7a.45.45 0 00-.145-.358c-.097-.086-.233-.129-.409-.129-.169 0-.301.036-.395.108a.336.336 0 00-.141.282c0 .109.055.201.164.275.111.074.273.143.487.208.394.118.681.265.861.441s.27.394.27.655a.81.81 0 01-.33.685c-.22.165-.516.247-.888.247-.258 0-.494-.047-.706-.141a1.128 1.128 0 01-.487-.39.999.999 0 01-.166-.572h.695c0 .371.222.556.665.556.165 0 .293-.033.385-.099a.331.331 0 00.138-.282zm3.694-1.917h-1.029v2.799h-.692v-2.799h-1.015v-.561h2.737v.561zm2.419 1.343H36.48v.9h1.56v.556h-2.252v-3.36h2.248v.561h-1.555v.801h1.329v.542zm1.881.226h-.552v1.23h-.692v-3.36h1.248c.397 0 .703.088.919.265s.323.427.323.75c0 .229-.05.421-.15.575a1.015 1.015 0 01-.45.365l.727 1.373v.032h-.743l-.63-1.23zm-.552-.561h.558c.174 0 .309-.044.404-.132a.48.48 0 00.143-.367.506.506 0 00-.136-.374c-.089-.091-.227-.136-.413-.136h-.556v1.008zm4.196.607v1.184h-.692v-3.36h1.311c.252 0 .474.046.665.138.192.092.34.224.443.395.103.169.155.362.155.579 0 .329-.113.589-.339.78-.225.189-.536.284-.935.284h-.607zm0-.561h.619c.183 0 .322-.043.418-.129.097-.086.145-.209.145-.369 0-.165-.048-.298-.145-.399s-.231-.154-.402-.157h-.635v1.055zm4.38.289h-1.329v.9h1.56v.556h-2.252v-3.36h2.248v.561h-1.555v.801h1.329v.542zm3.212-1.343h-1.029v2.799h-.692v-2.799H48.19v-.561h2.737v.561zm2.419 1.343h-1.329v.9h1.56v.556h-2.252v-3.36h2.248v.561h-1.555v.801h1.329v.542zm1.881.226h-.552v1.23h-.692v-3.36h1.249c.397 0 .703.088.919.265s.323.427.323.75c0 .229-.05.421-.15.575a1.01 1.01 0 01-.45.365l.727 1.373v.032h-.743l-.63-1.23zm-.552-.561h.559c.174 0 .309-.044.404-.132a.48.48 0 00.143-.367.506.506 0 00-.136-.374c-.089-.091-.227-.136-.413-.136h-.556v1.008zm4.069.909a.352.352 0 00-.138-.3c-.092-.071-.258-.145-.498-.222a3.492 3.492 0 01-.57-.231c-.382-.206-.572-.484-.572-.833 0-.181.051-.343.152-.485.103-.143.25-.255.441-.335.192-.08.408-.12.646-.12.24 0 .454.044.642.131.188.086.333.209.436.367a.953.953 0 01.157.54h-.692a.45.45 0 00-.145-.358c-.097-.086-.233-.129-.408-.129-.169 0-.301.036-.395.108a.336.336 0 00-.141.282c0 .109.055.201.164.275.111.074.273.143.487.208.394.118.681.265.861.441s.27.394.27.655a.81.81 0 01-.33.685c-.22.165-.516.247-.888.247-.258 0-.494-.047-.706-.141a1.128 1.128 0 01-.487-.39.999.999 0 01-.166-.572h.695c0 .371.221.556.665.556.165 0 .293-.033.385-.099a.331.331 0 00.138-.282z"/></symbol><symbol id="brand" viewBox="0 0 43 32"><path d="M3.264 26.464a.987.987 0 01.252.67c.009.159-.022.317-.09.464s-.17.277-.3.383a1.8 1.8 0 01-1.133.309H.001v-4.248h1.951c.385-.023.767.076 1.081.282.126.096.226.219.292.357s.095.288.087.438a.928.928 0 01-.227.649 1.075 1.075 0 01-.594.332c.264.044.503.173.673.363zm-2.337-.641h.834a.84.84 0 00.53-.141c.063-.052.111-.116.142-.188s.044-.149.037-.227a.488.488 0 00-.176-.415.856.856 0 00-.546-.143h-.82v1.114zm1.446 1.628c.067-.053.12-.12.154-.195s.049-.156.043-.237c.005-.082-.01-.164-.045-.239s-.088-.143-.156-.196a.921.921 0 00-.567-.154H.927v1.168h.886a.936.936 0 00.56-.147zM7.252 28.29l-1.086-1.66h-.408v1.66h-.934v-4.248h1.768c.446-.028.886.101 1.231.361.247.231.396.534.42.857s-.078.642-.289.901a1.476 1.476 0 01-.843.432l1.156 1.697H7.252zm-1.493-2.239h.764c.53 0 .795-.214.795-.643.005-.088-.009-.175-.043-.257s-.085-.157-.152-.22a.874.874 0 00-.601-.172h-.773l.009 1.293zM12.356 27.435h-1.861l-.329.855h-.979l1.709-4.2h1.058l1.702 4.2h-.979l-.322-.855zm-.249-.644l-.68-1.793-.68 1.793h1.36zM18.745 28.29h-.927l-2.078-2.889v2.889h-.925v-4.248h.925l2.078 2.905v-2.905h.927v4.248zM24.034 27.273a1.929 1.929 0 01-.839.749 2.932 2.932 0 01-1.303.268h-1.65v-4.248h1.65c.451-.011.898.079 1.303.261.355.164.647.422.839.741.191.346.29.727.29 1.114s-.099.769-.29 1.114zm-1.06-.102c.265-.282.41-.642.41-1.014s-.145-.732-.41-1.014a1.707 1.707 0 00-1.16-.361h-.644v2.75h.644c.424.024.841-.105 1.16-.361zM12.936.415s11.964 4.136 11.71 10.12v10.122S12.691 16.519 12.94 10.535L12.935.415zM35.305 18.288a17.348 17.348 0 017.601-2.565v-3.169c-3.144 1.109-5.81 3.121-7.601 5.733z"/><path d="M33.947 19.242c1.849-3.41 5.056-6.041 8.959-7.352V2.76S25.868 8.651 26.228 17.174v14.412s.759-.264 1.954-.757c0-.461 0-.925.054-1.392.353-3.957 2.407-7.623 5.711-10.193z"/><path d="M32.327 24.596c.09-1 .289-1.988.596-2.951-2.057 2.219-3.303 4.974-3.563 7.875-.025.274-.039.548-.045.83a51.27 51.27 0 003.277-1.581 13.68 13.68 0 01-.265-4.173zM33.005 24.648a13.032 13.032 0 00.211 3.779c4.655-2.55 9.886-6.491 9.684-11.253v-.415c-3.326.341-6.438 1.672-8.857 3.789a13.233 13.233 0 00-1.038 4.1z"/></symbol><symbol id="company-tag-line" viewBox="0 0 67 32"><path d="M33.798 15.058a2.098 2.098 0 01-.431-1.417v-2.055c0-.63.143-1.109.429-1.436s.776-.491 1.472-.489c.654 0 1.118.139 1.392.418.299.356.445.79.412 1.229v.483h-1.169v-.489c.004-.16-.007-.32-.034-.479a.464.464 0 00-.167-.284.676.676 0 00-.424-.111.714.714 0 00-.445.117.55.55 0 00-.194.313 2.349 2.349 0 00-.046.508v2.494c-.018.241.033.481.15.7.058.074.139.133.233.17s.199.051.302.039c.15.011.298-.03.414-.113a.5.5 0 00.174-.303c.027-.165.039-.332.036-.5v-.506h1.169v.462c.033.457-.109.911-.404 1.292-.269.305-.726.458-1.399.458s-1.182-.163-1.47-.502zM38.667 15.079c-.295-.32-.443-.786-.443-1.403v-2.161c0-.61.148-1.072.443-1.386s.789-.47 1.482-.468c.688 0 1.179.156 1.474.468.295.314.445.776.445 1.386v2.161c0 .61-.15 1.079-.45 1.4s-.789.483-1.47.483c-.68 0-1.184-.163-1.482-.481zm2.027-.518a1.2 1.2 0 00.14-.64v-2.646a1.172 1.172 0 00-.138-.627c-.059-.076-.142-.135-.239-.172s-.204-.05-.308-.037c-.105-.013-.212 0-.309.037s-.18.096-.24.172a1.146 1.146 0 00-.14.627v2.659c-.015.22.033.44.14.64.068.067.152.121.247.159s.197.056.301.056c.104 0 .206-.019.3-.056s.178-.091.247-.159v-.013zM43.475 9.724h1.259l.947 3.988.968-3.988h1.225l.124 5.756h-.906l-.097-4-.934 4h-.726l-.968-4.015-.09 4.015h-.915l.114-5.756zM49.409 9.724h1.961c1.13 0 1.695.545 1.695 1.634 0 1.044-.595 1.565-1.784 1.563h-.668v2.558h-1.211l.007-5.756zm1.676 2.46c.12.013.241.004.356-.028s.221-.084.31-.154a.93.93 0 00.174-.65 1.815 1.815 0 00-.058-.523c-.017-.057-.048-.111-.089-.158s-.094-.086-.153-.116a1.251 1.251 0 00-.54-.092h-.47v1.72h.47zM54.811 9.724h1.3l1.334 5.756h-1.128l-.264-1.327h-1.16l-.271 1.327h-1.145l1.334-5.756zm1.111 3.762l-.453-2.416-.453 2.416h.905zM58.522 9.724h.847l1.622 3.284V9.724h1.005v5.756h-.806l-1.632-3.428v3.428h-1.039l.002-5.756zM64.35 13.286l-1.349-3.553h1.135l.823 2.282.772-2.282h1.111l-1.332 3.553v2.195h-1.162v-2.195zM35.667 17.997v.301h-.988v2.339h-.414v-2.339h-.993v-.301h2.394zM38.764 20.637h-.32a.143.143 0 01-.09-.025.13.13 0 01-.053-.061l-.286-.627h-1.37l-.286.627a.166.166 0 01-.044.071.146.146 0 01-.09.025h-.32l1.211-2.64h.421l1.225 2.629zm-2.005-.98h1.143l-.484-1.074a1.85 1.85 0 01-.09-.249l-.046.14-.044.111-.479 1.072zM40.851 20.378c.076.003.152.003.228 0a1.651 1.651 0 00.368-.079c.053-.019.107-.042.162-.065v-.594h-.484c-.012.001-.024-.001-.035-.005s-.022-.009-.03-.016a.062.062 0 01-.024-.048v-.203h.939v1.012a1.907 1.907 0 01-.511.215c-.099.025-.2.043-.303.054a3.775 3.775 0 01-.353.017 1.843 1.843 0 01-.61-.098 1.492 1.492 0 01-.484-.276 1.259 1.259 0 01-.312-.418 1.32 1.32 0 01-.111-.548 1.356 1.356 0 01.109-.552c.07-.156.176-.299.312-.418a1.47 1.47 0 01.484-.274c.207-.067.427-.101.649-.098.113 0 .225.008.337.023a1.65 1.65 0 01.53.171c.074.041.145.087.211.138l-.116.163c-.009.015-.023.027-.039.036s-.036.014-.055.014a.16.16 0 01-.075-.021 1.81 1.81 0 01-.119-.063 1.02 1.02 0 00-.162-.071 1.524 1.524 0 00-.223-.059 1.854 1.854 0 00-.308-.023 1.413 1.413 0 00-.467.073.926.926 0 00-.581.537 1.236 1.236 0 000 .88 1.027 1.027 0 00.595.541c.154.046.317.063.479.052zM44.71 20.336h1.322v.301h-1.726v-2.64h.414l-.01 2.339zM47.407 20.637h-.414v-2.64h.414v2.64zM48.947 18.01a.203.203 0 01.063.048l1.77 1.99a.737.737 0 010-.094v-1.967h.361v2.651h-.208a.197.197 0 01-.09-.015.23.23 0 01-.065-.05l-1.767-1.988v2.053h-.346v-2.64h.215c.023 0 .046.004.068.013zM54.189 17.997v.291h-1.467v.872h1.189v.28h-1.189v.901h1.467v.291h-1.893v-2.634h1.893zM10.805 1.694L29.188 6.2v15.791l-18.383-4.504V1.694zM9.626.348v17.907l20.739 5.085V5.436L9.626.348z"/><path d="M20.741 31.652L0 26.562V8.657l20.741 5.088v17.907z"/><path d="M9.97 1.491l18.144 4.45-7.716 6.663L2.252 8.152 9.97 1.491zM9.626.348L0 8.658l20.741 5.087 9.624-8.31L9.626.348zM21.908 30.645l8.457-7.303-8.457-2.075v9.378z"/></symbol><symbol id="antenna" viewBox="0 0 32 32"><path fill="var(--color1, #212121)" d="M30.773 22.098l-8.443-8.505.937-4.616c.242.094.499.144.758.146h.006a2.159 2.159 0 10-2.008-1.435l-4.96.605L8.972.16A.534.534 0 008.595 0a.532.532 0 00-.373.155L6.709 1.659a.534.534 0 000 .754l.814.826a14.943 14.943 0 002.519 17.663.513.513 0 00.146.098c-.034.18-.051.364-.052.547v6.187h-6.4a2.67 2.67 0 00-2.667 2.667v1.067c0 .295.239.533.533.533h24.533a.533.533 0 00.533-.533v-1.067a2.67 2.67 0 00-2.667-2.667h-6.4v-2.742a15.09 15.09 0 003.049.32 14.854 14.854 0 007.04-1.783l.818.823a.534.534 0 00.377.16.532.532 0 00.373-.155l1.513-1.504a.534.534 0 000-.754zM23.28 6.233a1.066 1.066 0 11.752 1.822h-.003a1.067 1.067 0 01-.747-1.823h-.002zm-1.256 3.505l-.598 2.946-1.175-1.182 1.774-1.763zm-.606-.902l-1.92 1.909-1.485-1.493 3.405-.415zM24.004 28.8a1.6 1.6 0 011.6 1.6v.533H2.137V30.4a1.6 1.6 0 011.6-1.6h20.267zm-7.467-2.133v1.067h-5.333v-1.067h5.333zM11.204 25.6v-4.053c0-1.294 1.196-2.347 2.667-2.347s2.667 1.053 2.667 2.347V25.6h-5.333zm6.4-1.696v-2.357c0-1.882-1.675-3.413-3.733-3.413a3.8 3.8 0 00-3.281 1.786A13.87 13.87 0 018.311 4.033l18.602 18.709a13.818 13.818 0 01-9.309 1.163zm11.289-.684L7.836 2.039l.755-.752 7.935 7.98c.004 0 .006.007.01.01l13.115 13.191-.757.752z"/><path fill="var(--color2, #2196f3)" d="M13.876 20.267h-.005a1.6 1.6 0 10-.004 3.2h.005a1.6 1.6 0 10.004-3.2zm.373 1.978a.534.534 0 01-.752-.756.534.534 0 01.373-.155.532.532 0 01.373.911h.005z"/></symbol><symbol id="clock" viewBox="0 0 32 32"><path fill="var(--color1, #212121)" d="M31.305 15.301C31.303 6.849 24.45-.002 15.997 0S.694 6.855.696 15.308a15.304 15.304 0 0010.649 14.576.662.662 0 00.529-.065.637.637 0 00.283-.356l3.865-12.25a1.912 1.912 0 10-.84-3.635l-5.106-5.107a.637.637 0 00-.902.902l5.103 5.109a1.876 1.876 0 00.536 2.309L11.13 28.464C3.852 25.783.126 17.71 2.807 10.432S13.561-.572 20.839 2.109s11.004 10.754 8.323 18.032a14.042 14.042 0 01-7.462 7.973l-.398-1.874a.638.638 0 00-1.048-.344l-3.837 3.426a.637.637 0 00.231 1.084l4.899 1.563a.638.638 0 00.819-.74l-.391-1.839a15.255 15.255 0 009.329-14.089zM16 14.664a.638.638 0 110 1.277.638.638 0 010-1.277zm2.1 14.864l2.184-1.948.603 2.84-2.787-.892z"/><path fill="var(--color2, #2196f3)" d="M15.362 3.185V4.46a.638.638 0 101.276 0V3.185a.638.638 0 00-1.276 0zM3.884 14.664a.638.638 0 000 1.276h1.275a.638.638 0 100-1.276H3.884zM28.116 15.939a.638.638 0 100-1.276h-1.275a.638.638 0 000 1.276h1.275z"/></symbol><symbol id="diagram" viewBox="0 0 32 32"><path fill="var(--color2, #2196f3)" d="M14.925 14.945h1.066v4.798h-1.066v-4.797zM19.19 17.077h1.066v2.665H19.19v-2.665zM10.661 18.676h1.066v1.066h-1.066v-1.066zM7.463 18.143h1.066v1.599H7.463v-1.599z"/><path fill="var(--color1, #212121)" d="M1.599 28.271h25.587a1.6 1.6 0 001.599-1.599V24.54a1.6 1.6 0 00-1.599-1.599h-.533V9.648l3.028-2.868a1.608 1.608 0 10-.746-.763L26.654 8.18V6.95a1.6 1.6 0 00-1.599-1.599H3.733A1.6 1.6 0 002.134 6.95v15.992h-.533a1.6 1.6 0 00-1.599 1.599v2.132a1.6 1.6 0 001.599 1.599zM30.384 4.817a.533.533 0 110 1.067.533.533 0 010-1.067zM3.198 6.949c0-.294.239-.533.533-.533h21.322c.294 0 .533.239.533.533v2.239l-1.066 1.013V8.015a.533.533 0 00-.533-.533H4.797a.533.533 0 00-.533.533v13.326c0 .294.239.533.533.533h19.19a.533.533 0 00.533-.533v-9.674l1.066-1.01v12.284H3.198V6.949zm4.798 6.93a1.598 1.598 0 101.107 2.749l1.853.93a.532.532 0 00.636-.123l3.939-4.431 3.872 2.901a.533.533 0 00.686-.039l3.365-3.188v8.131H5.33V8.549h18.124v2.66l-3.771 3.572-3.904-2.927a.533.533 0 00-.718.072l-3.993 4.493-1.493-.746c.011-.064.018-.129.02-.193a1.6 1.6 0 00-1.599-1.599zm.533 1.599a.533.533 0 11-1.067 0 .533.533 0 011.067 0zm3.198 8.529h5.331v.533a.533.533 0 01-.533.533h-4.264a.533.533 0 01-.533-.533v-.533zm-10.661.533c0-.294.239-.533.533-.533h9.062v.533a1.6 1.6 0 001.599 1.599h4.264a1.6 1.6 0 001.599-1.599v-.533h9.062c.294 0 .533.239.533.533v2.132a.533.533 0 01-.533.533H1.598a.533.533 0 01-.533-.533V24.54z"/></symbol><symbol id="astronaut" viewBox="0 0 32 32"><path fill="var(--color2, #2196f3)" d="M31.974 4.524a.534.534 0 00-.43-.363l-1.91-.278-.855-1.731c-.179-.365-.777-.365-.956 0l-.855 1.731-1.91.278a.535.535 0 00-.296.91l1.383 1.348-.326 1.903c-.034.2.048.402.212.522a.53.53 0 00.562.04l1.709-.899 1.709.899a.536.536 0 00.775-.563l-.326-1.903 1.383-1.348a.536.536 0 00.135-.547zm-2.463 1.327a.534.534 0 00-.153.472l.191 1.114-1-.526a.533.533 0 00-.498 0l-1.001.526.191-1.114a.534.534 0 00-.153-.472l-.81-.789 1.119-.163a.532.532 0 00.402-.292l.5-1.013.5 1.013a.535.535 0 00.402.292l1.119.163-.809.789zM26.133 20.522h-1.067v1.067h1.067v-1.067zM26.133 22.656h-1.067v1.067h1.067v-1.067zM27.2 21.589h-1.067v1.067H27.2v-1.067zM25.067 21.589H24v1.067h1.067v-1.067zM22.4 26.389h-1.067v1.067H22.4v-1.067zM22.4 28.522h-1.067v1.067H22.4v-1.067zM23.467 27.456H22.4v1.067h1.067v-1.067zM21.333 27.456h-1.067v1.067h1.067v-1.067zM16 24.256h-1.067v1.067H16v-1.067zM16 26.389h-1.067v1.067H16v-1.067zM17.067 25.322H16v1.067h1.067v-1.067zM14.933 25.322h-1.067v1.067h1.067v-1.067zM5.866 6.122H4.799v1.067h1.067V6.122zM5.866 8.255H4.799v1.067h1.067V8.255z"/><path fill="var(--color2, #2196f3)" d="M6.933 7.189H5.866v1.067h1.067V7.189zM4.8 7.189H3.733v1.067H4.8V7.189z"/><path fill="var(--color1, #212121)" d="M24.715 14.159a1.775 1.775 0 00-1.188-.705 1.778 1.778 0 00-1.34.352l-1.252.96-1.898 1.417-1.358-.541c2.421-1.086 4.114-3.508 4.114-6.32 0-3.823-3.123-6.933-6.961-6.933s-6.961 3.11-6.961 6.933a6.86 6.86 0 001.12 3.758l-2.764-.024h-.005c-.009 0-.015.004-.023.005a.515.515 0 00-.155.031l-.038.013c-.006.003-.013.003-.019.006l-3.233 1.596-.001.001-1.893.911a.397.397 0 00-.063.035 1.779 1.779 0 00-.598 2.295c.22.429.595.745 1.056.889a1.776 1.776 0 001.378-.128l1.388-.738 2.264-1.169 1.357-.008L2.2 22.211l-.002.001-1.339 1.333c-.316.315-.49.732-.49 1.178s.174.863.49 1.179c.325.323.752.485 1.179.485s.854-.162 1.18-.485l1.314-1.309 1.741-1.3.901.897-1.762 1.754-.002.001-1.339 1.333c-.316.315-.49.732-.49 1.178s.174.863.49 1.179c.325.323.753.485 1.18.485s.855-.162 1.18-.485l3.482-3.467.001-.002 1.01-1-.004-.004c.006-.006.015-.009.022-.015l5.166-5.658 3.471.494a.52.52 0 00.262-.033c.018-.006.033-.015.05-.023.019-.01.039-.015.058-.027l3.213-2.133c.012-.008.018-.021.029-.029.013-.01.029-.014.041-.026l1.271-1.191c.662-.62.753-1.635.212-2.362zM2.13 17.77a.714.714 0 01-.558.052.717.717 0 01-.213-1.26l1.314-.632.449 1.312-.992.528zm3.498-1.828l-1.548.8-.439-1.283 2.027-1.001-.04 1.484zm15.099-6.62a5.79 5.79 0 01-.599 2.559l-4.181-1.899a1.863 1.863 0 00-.788-1.388l1.464-4.86c2.378.756 4.105 2.974 4.105 5.588zm-11.789 0c0-3.235 2.644-5.867 5.894-5.867.253 0 .5.021.745.052l-1.432 4.754c-.019-.001-.037-.006-.057-.006-1.033 0-1.873.837-1.873 1.867s.84 1.867 1.873 1.867c.694 0 1.294-.383 1.618-.945l3.862 1.755a5.894 5.894 0 01-4.737 2.39c-3.25 0-5.894-2.632-5.894-5.867zm5.956.8c0 .441-.362.8-.806.8s-.806-.359-.806-.8c0-.441.362-.8.806-.8s.806.359.806.8zM2.465 25.146a.608.608 0 01-.854.001.592.592 0 010-.844l.962-.958.851.848-.959.955zm3.214 3.734a.608.608 0 01-.855.001.592.592 0 010-.844l.963-.959.852.848-.96.955zm3.481-3.469l-.002.001-1.765 1.76-.852-.848 1.763-1.755.002-.001c.04-.04.065-.088.09-.135.007-.014.02-.026.026-.04.017-.041.019-.085.026-.129.003-.025.014-.047.014-.073 0-.036-.013-.07-.02-.106-.006-.032-.006-.065-.019-.095a.55.55 0 00-.091-.138c-.01-.012-.014-.027-.025-.038h-.001l-.001-.002-1.607-1.6c-.017-.017-.039-.024-.058-.038a.507.507 0 00-.087-.058.515.515 0 00-.093-.033.507.507 0 00-.103-.02.5.5 0 00-.095.005.53.53 0 00-.104.02.477.477 0 00-.094.045c-.02.011-.042.015-.061.029L4.23 23.486l-.901-.897 2.399-2.386 4.361 4.289-.928.919zm6.819-7.017c-.015-.002-.03.004-.045.003a.556.556 0 00-.3.075.492.492 0 00-.083.061c-.013.011-.028.017-.04.029l-4.698 5.146-4.328-4.257 2.833-2.818a.534.534 0 00-.379-.911v-.001l-2.219.013.028-1.607 3.104.027a6.947 6.947 0 004.981 2.101c.437 0 .864-.045 1.279-.123.04.032.079.065.13.085l2.41.96.152.758.178.885-3.003-.427zm4.041.178l-.313-1.558 1.446-1.08.947 1.257-2.08 1.381zm3.754-2.831l-.838.785-.931-1.236.831-.637a.735.735 0 01.543-.143.718.718 0 01.48.284.713.713 0 01-.085.947z"/><path fill="var(--color1, #212121)" d="M13.602 18.544l-2.143-2.133a.534.534 0 00-.753 0l-2.142 2.133a.537.537 0 000 .756l2.142 2.133a.536.536 0 00.753 0l2.143-2.133a.535.535 0 000-.756zm-2.519 1.759l-1.387-1.381 1.387-1.381 1.387 1.381-1.387 1.381zM17.164 5.071l-.258 1.036c.071.018 1.738.452 1.738 2.149h1.067c0-2.017-1.666-2.965-2.547-3.185zM19.711 9.322h-1.067v1.067h1.067V9.322z"/></symbol><symbol id="mail" viewBox="0 0 43 32"><path d="M38.657.004H3.999A4.004 4.004 0 000 4.003v23.994a4.004 4.004 0 003.999 3.999h34.658a4.004 4.004 0 003.999-3.999V4.003A4.004 4.004 0 0038.657.004zm0 2.666c.181 0 .353.038.511.103l-17.84 15.462L3.488 2.773a1.32 1.32 0 01.511-.103h34.658zm0 26.66H3.999a1.334 1.334 0 01-1.333-1.333V5.59l17.789 15.417a1.331 1.331 0 001.746 0L39.99 5.59v22.407c0 .736-.597 1.333-1.333 1.333z"/></symbol><symbol id="phone" viewBox="0 0 20 32"><path d="M17 0H3C1.346 0 0 1.346 0 3v26c0 1.654 1.346 3 3 3h14c1.654 0 3-1.346 3-3V3c0-1.654-1.346-3-3-3zM3 2h14a1 1 0 011 1v21H2V3a1 1 0 011-1zm14 28H3a1 1 0 01-1-1v-3h16v3a1 1 0 01-1 1z"/><path d="M4.707 27.478c.391.365.391.956 0 1.321s-1.024.365-1.414 0c-.391-.365-.391-.956 0-1.321s1.024-.365 1.414 0z"/></symbol><symbol id="instagram" viewBox="0 0 32 32"><path d="M31.916 9.408c-.075-1.7-.35-2.869-.744-3.882a7.806 7.806 0 00-1.851-2.838A7.867 7.867 0 0026.489.844C25.47.45 24.307.175 22.607.1 20.894.019 20.35 0 16.006 0s-4.888.019-6.595.094c-1.7.075-2.869.35-3.882.744a7.803 7.803 0 00-2.838 1.85A7.867 7.867 0 00.847 5.52C.453 6.539.178 7.702.103 9.402c-.081 1.713-.1 2.257-.1 6.601s.019 4.888.094 6.595c.075 1.7.35 2.869.744 3.882a7.895 7.895 0 001.85 2.838 7.867 7.867 0 002.832 1.844c1.019.394 2.182.669 3.882.744 1.706.075 2.25.094 6.595.094s4.888-.019 6.595-.094c1.7-.075 2.869-.35 3.882-.744a8.184 8.184 0 004.682-4.682c.394-1.019.669-2.182.744-3.882.075-1.707.094-2.251.094-6.595s-.006-4.889-.081-6.595zm-2.882 13.065c-.069 1.563-.331 2.407-.55 2.969a5.31 5.31 0 01-3.038 3.038c-.563.219-1.413.481-2.969.55-1.688.075-2.194.094-6.464.094s-4.782-.019-6.464-.094c-1.563-.069-2.407-.331-2.969-.55a4.926 4.926 0 01-1.838-1.194 4.974 4.974 0 01-1.194-1.838c-.219-.563-.481-1.413-.55-2.969-.075-1.688-.094-2.194-.094-6.464s.019-4.782.094-6.464c.069-1.563.331-2.407.55-2.969a4.868 4.868 0 011.2-1.838A4.974 4.974 0 016.586 3.55c.563-.219 1.413-.481 2.969-.55 1.688-.075 2.194-.094 6.464-.094 4.276 0 4.782.019 6.464.094 1.563.069 2.407.331 2.969.55a4.914 4.914 0 011.838 1.194 4.974 4.974 0 011.194 1.838c.219.563.481 1.413.55 2.969.075 1.688.094 2.194.094 6.464s-.019 4.77-.094 6.458z"/><path d="M16.006 7.783c-4.538 0-8.22 3.682-8.22 8.22s3.682 8.22 8.22 8.22c4.539 0 8.22-3.682 8.22-8.22s-3.682-8.22-8.221-8.22zm0 13.552a5.333 5.333 0 010-10.664 5.333 5.333 0 010 10.664zM26.471 7.458a1.919 1.919 0 11-3.838 0 1.919 1.919 0 013.838 0z"/></symbol><symbol id="twitter" viewBox="0 0 32 32"><path d="M32 6.078c-1.19.522-2.458.868-3.78 1.036a6.523 6.523 0 002.886-3.626 13.11 13.11 0 01-4.16 1.588A6.574 6.574 0 0022.154 3c-3.632 0-6.556 2.948-6.556 6.562 0 .52.044 1.02.152 1.496-5.454-.266-10.28-2.88-13.522-6.862a6.605 6.605 0 00-.898 3.316 6.57 6.57 0 002.914 5.452 6.479 6.479 0 01-2.964-.808v.072c0 3.188 2.274 5.836 5.256 6.446a6.548 6.548 0 01-1.72.216 5.8 5.8 0 01-1.242-.112c.85 2.598 3.262 4.508 6.13 4.57a13.182 13.182 0 01-8.134 2.798c-.538 0-1.054-.024-1.57-.09A18.469 18.469 0 0010.064 29c12.072 0 18.672-10 18.672-18.668 0-.29-.01-.57-.024-.848A13.087 13.087 0 0032 6.078z"/></symbol><symbol id="facebook" viewBox="0 0 32 32"><path d="M21.079 5.313H24V.225C23.496.156 21.763 0 19.744 0c-4.212 0-7.097 2.649-7.097 7.519V12H7.999v5.688h4.648V32h5.699V17.689h4.46l.708-5.688h-5.169V8.082c.001-1.644.444-2.769 2.735-2.769z"/></symbol><symbol id="linkedin" viewBox="0 0 32 32"><path d="M31.992 32v-.001H32V20.263c0-5.741-1.236-10.164-7.948-10.164-3.227 0-5.392 1.771-6.276 3.449h-.093v-2.913h-6.364v21.364h6.627V21.42c0-2.785.528-5.479 3.977-5.479 3.399 0 3.449 3.179 3.449 5.657v10.401h6.62zM.528 10.636h6.635V32H.528V10.636zM3.843 0C1.722 0 0 1.721 0 3.843s1.721 3.879 3.843 3.879c2.121 0 3.843-1.757 3.843-3.879A3.846 3.846 0 003.843 0z"/></symbol></defs></svg>