<svg aria-hidden="true" style="position:absolute;width:0;height:0" xmlns="http://www.w3.org/2000/svg" overflow="hidden"><defs><symbol id="rectangle-focus" viewBox="0 0 34 32"><path fill="var(--color1, #2196f3)" d="M4.266.004H29.86a4.266 4.266 0 014.266 4.266v23.461a4.266 4.266 0 01-4.266 4.266H4.266A4.266 4.266 0 010 27.731V4.27A4.266 4.266 0 014.266.004z"/><path fill="var(--color2, #fff)" stroke="var(--color2, #fff)" stroke-width=".427" d="M8.44 16.537l-.147-.14-2.204 2.088 7.765 7.408L30.168 10.33l-2.19-2.089-14.125 13.462-5.415-5.165z"/></symbol><symbol id="rectangle" viewBox="0 0 34 32"><path d="M30.333 3.559v24.883H3.791V3.559h26.542zm0-3.555H3.791c-2.085 0-3.792 1.6-3.792 3.555v24.883c0 1.955 1.706 3.555 3.792 3.555h26.542c2.085 0 3.792-1.6 3.792-3.555V3.559c0-1.955-1.706-3.555-3.792-3.555z"/></symbol><symbol id="rectangle-black" viewBox="0 0 34 32"><path d="M4.266.004H29.86a4.266 4.266 0 014.266 4.266v23.461a4.266 4.266 0 01-4.266 4.266H4.266A4.266 4.266 0 010 27.731V4.27A4.266 4.266 0 014.266.004z"/><path stroke-width=".427" d="M8.44 16.537l-.147-.14-2.204 2.088 7.765 7.408L30.168 10.33l-2.19-2.089-14.125 13.462-5.415-5.165z"/></symbol><symbol id="agree" viewBox="0 0 42 32"><path stroke-width=".64" d="M4.374 15.092l-.251-.24-3.782 3.582 13.324 12.712L41.659 4.44 37.902.856 13.665 23.955l-9.291-8.863z"/></symbol><symbol id="mail" viewBox="0 0 43 32"><path d="M37.75-.25H5.25c-2.234 0-4.042 1.828-4.042 4.063l-.02 24.375a4.075 4.075 0 004.063 4.063h32.5a4.075 4.075 0 004.063-4.063V3.813A4.075 4.075 0 0037.751-.25zm-.812 8.633l-14.361 8.978a2.055 2.055 0 01-2.153 0L6.063 8.383A1.738 1.738 0 015.25 6.92c0-1.361 1.483-2.173 2.641-1.463L21.5 13.968l13.609-8.511c1.158-.711 2.641.102 2.641 1.463a1.74 1.74 0 01-.813 1.463z"/></symbol><symbol id="person" viewBox="0 0 32 32"><path d="M16 16c4.42 0 8-3.58 8-8s-3.58-8-8-8-8 3.58-8 8 3.58 8 8 8zm0 4c-5.34 0-16 2.68-16 8v2c0 1.1.9 2 2 2h28c1.1 0 2-.9 2-2v-2c0-5.32-10.66-8-16-8z"/></symbol><symbol id="phone" viewBox="0 0 32 32"><path d="M28.867 21.822l-4.525-.517a3.545 3.545 0 00-2.922 1.015l-3.278 3.278A26.8 26.8 0 016.403 13.859l3.296-3.296a3.545 3.545 0 001.015-2.921l-.517-4.489A3.566 3.566 0 006.652 0H3.57C1.557 0-.117 1.674.007 3.687.951 18.9 13.118 31.049 28.313 31.993c2.013.125 3.687-1.55 3.687-3.563v-3.082c.018-1.799-1.336-3.313-3.135-3.527z"/></symbol><symbol id="send" viewBox="0 0 32 32"><path d="M32 0L.001 17.999l10.227 3.788L26.001 7 14.003 23.186l.01.004-.012-.004V32l5.735-6.691L27.001 28l5-27.999z"/></symbol></defs></svg>